<?xml version="1.0" encoding="UTF-8"?>
<svg xmlns="http://www.w3.org/2000/svg" xmlns:xlink="http://www.w3.org/1999/xlink" width="375pt" height="374.999991pt" viewBox="0 0 375 374.999991" version="1.2">
<defs>
<clipPath id="clip1">
  <path d="M 165 100.503906 L 204 100.503906 L 204 139 L 165 139 Z M 165 100.503906 "/>
</clipPath>
<clipPath id="clip2">
  <path d="M 117.035156 128 L 257.671875 128 L 257.671875 274.503906 L 117.035156 274.503906 Z M 117.035156 128 "/>
</clipPath>
</defs>
<g id="surface1">
<g clip-path="url(#clip1)" clip-rule="nonzero">
<path style=" stroke:none;fill-rule:nonzero;fill:rgb(38.038635%,69.40918%,90.19928%);fill-opacity:1;" d="M 184.398438 106.253906 C 191.730469 106.253906 197.695312 112.230469 197.695312 119.578125 C 197.695312 126.925781 191.730469 132.902344 184.398438 132.902344 C 177.066406 132.902344 171.101562 126.925781 171.101562 119.578125 C 171.101562 112.230469 177.066406 106.253906 184.398438 106.253906 Z M 184.398438 138.65625 C 194.894531 138.65625 203.433594 130.097656 203.433594 119.578125 C 203.433594 109.0625 194.894531 100.503906 184.398438 100.503906 C 173.90625 100.503906 165.367188 109.0625 165.367188 119.578125 C 165.367188 130.097656 173.90625 138.65625 184.398438 138.65625 "/>
</g>
<path style=" stroke:none;fill-rule:nonzero;fill:rgb(38.038635%,69.40918%,90.19928%);fill-opacity:1;" d="M 178.640625 195.636719 C 177.96875 197.917969 176.453125 199.800781 174.375 200.9375 L 171.402344 202.5625 L 162.898438 186.9375 L 165.875 185.3125 C 170.167969 182.964844 175.574219 184.558594 177.917969 188.863281 C 179.050781 190.953125 179.308594 193.359375 178.640625 195.636719 Z M 163.125 180.265625 L 157.632812 183.265625 C 156.964844 183.632812 156.472656 184.246094 156.253906 184.980469 C 156.042969 185.710938 156.125 186.5 156.488281 187.167969 L 167.738281 207.839844 C 168.101562 208.511719 168.71875 209.007812 169.445312 209.222656 C 169.710938 209.300781 169.984375 209.339844 170.257812 209.339844 C 170.730469 209.339844 171.203125 209.21875 171.628906 208.988281 L 177.117188 205.988281 C 184.195312 202.121094 186.8125 193.203125 182.953125 186.113281 C 179.097656 179.019531 170.203125 176.398438 163.125 180.265625 "/>
<path style=" stroke:none;fill-rule:nonzero;fill:rgb(38.038635%,69.40918%,90.19928%);fill-opacity:1;" d="M 148.855469 207.445312 L 147.992188 200.96875 L 152.953125 205.207031 Z M 165.160156 208.074219 L 146.011719 191.722656 C 145.109375 190.949219 143.820312 190.820312 142.777344 191.386719 C 141.734375 191.957031 141.148438 193.113281 141.308594 194.292969 L 143.710938 212.253906 C 143.714844 212.261719 143.714844 212.273438 143.714844 212.285156 L 144.652344 219.285156 C 144.847656 220.730469 146.078125 221.78125 147.492188 221.78125 C 147.621094 221.78125 147.75 221.773438 147.878906 221.753906 C 149.449219 221.542969 150.550781 220.09375 150.339844 218.519531 L 149.675781 213.550781 L 157.628906 209.203125 L 161.441406 212.453125 C 162.644531 213.484375 164.457031 213.339844 165.484375 212.128906 C 166.511719 210.921875 166.367188 209.109375 165.160156 208.074219 "/>
<path style=" stroke:none;fill-rule:nonzero;fill:rgb(38.038635%,69.40918%,90.19928%);fill-opacity:1;" d="M 196.503906 164.773438 C 195.691406 163.722656 194.257812 163.363281 193.046875 163.917969 C 191.835938 164.472656 191.164062 165.789062 191.425781 167.097656 L 193.042969 175.226562 L 187.097656 169.460938 C 186.144531 168.539062 184.675781 168.386719 183.550781 169.109375 C 182.433594 169.828125 181.953125 171.226562 182.398438 172.484375 L 190.308594 194.980469 C 190.726562 196.160156 191.832031 196.902344 193.015625 196.902344 C 193.332031 196.902344 193.65625 196.847656 193.96875 196.734375 C 195.464844 196.207031 196.25 194.5625 195.71875 193.070312 L 191.855469 182.078125 L 195.65625 185.765625 C 196.558594 186.640625 197.917969 186.828125 199.023438 186.222656 C 200.125 185.617188 200.707031 184.371094 200.464844 183.136719 L 199.429688 177.941406 L 206.550781 187.148438 C 207.523438 188.40625 209.328125 188.632812 210.578125 187.660156 C 211.828125 186.683594 212.058594 184.878906 211.085938 183.625 L 196.503906 164.773438 "/>
<path style=" stroke:none;fill-rule:nonzero;fill:rgb(38.038635%,69.40918%,90.19928%);fill-opacity:1;" d="M 207.261719 159.417969 C 206.503906 158.023438 204.765625 157.511719 203.371094 158.269531 C 201.980469 159.03125 201.46875 160.777344 202.226562 162.167969 L 213.472656 182.84375 C 213.992188 183.800781 214.976562 184.339844 215.992188 184.339844 C 216.457031 184.339844 216.929688 184.230469 217.363281 183.992188 C 218.757812 183.230469 219.269531 181.484375 218.511719 180.089844 L 207.261719 159.417969 "/>
<path style=" stroke:none;fill-rule:nonzero;fill:rgb(38.038635%,69.40918%,90.19928%);fill-opacity:1;" d="M 226.78125 145.472656 C 225.390625 146.230469 224.878906 147.976562 225.636719 149.371094 L 232.835938 162.601562 L 213.515625 154.003906 C 212.390625 153.503906 211.074219 153.777344 210.246094 154.683594 C 209.410156 155.589844 209.246094 156.929688 209.832031 158.011719 L 221.082031 178.683594 C 221.601562 179.640625 222.585938 180.183594 223.601562 180.183594 C 224.066406 180.183594 224.535156 180.070312 224.972656 179.832031 C 226.363281 179.074219 226.878906 177.324219 226.121094 175.929688 L 218.921875 162.703125 L 238.238281 171.296875 C 239.363281 171.796875 240.679688 171.523438 241.515625 170.617188 C 242.347656 169.710938 242.511719 168.375 241.925781 167.292969 L 230.675781 146.617188 C 229.914062 145.226562 228.171875 144.710938 226.78125 145.472656 "/>
<g clip-path="url(#clip2)" clip-rule="nonzero">
<path style=" stroke:none;fill-rule:nonzero;fill:rgb(38.038635%,69.40918%,90.19928%);fill-opacity:1;" d="M 162.625 223.390625 C 162.617188 223.390625 162.613281 223.398438 162.605469 223.398438 L 146.6875 232.101562 L 135.332031 211.230469 C 136.816406 208.527344 137.171875 205.253906 136.125 202.199219 C 136.117188 202.175781 136.109375 202.148438 136.097656 202.121094 C 136.039062 201.949219 135.972656 201.777344 135.902344 201.609375 C 135.890625 201.570312 135.875 201.527344 135.855469 201.488281 C 135.773438 201.289062 135.6875 201.09375 135.589844 200.894531 C 135.488281 200.691406 135.378906 200.488281 135.265625 200.289062 C 135.242188 200.246094 135.21875 200.207031 135.195312 200.167969 C 133.84375 197.851562 131.734375 196.109375 129.175781 195.234375 C 128.238281 194.914062 127.277344 194.722656 126.316406 194.65625 L 124.742188 191.765625 L 228.964844 134.800781 L 250.910156 175.136719 Z M 215.480469 204.054688 C 212.769531 206.003906 209.21875 205.867188 207.207031 205.574219 L 218.765625 199.257812 C 218.058594 201.382812 216.960938 202.992188 215.480469 204.054688 Z M 187.269531 268.765625 L 187.269531 218.070312 C 187.269531 217.5625 187.136719 217.085938 186.902344 216.671875 L 201.949219 208.449219 L 201.949219 268.765625 Z M 166.851562 227.632812 L 181.53125 219.605469 L 181.53125 268.765625 L 166.851562 268.765625 Z M 127.6875 210.839844 L 122.910156 201.070312 L 123.175781 200.9375 C 123.652344 200.703125 124.152344 200.546875 124.664062 200.457031 C 124.765625 200.457031 124.863281 200.457031 124.960938 200.449219 C 126.808594 200.246094 128.59375 200.984375 129.738281 202.351562 C 129.746094 202.363281 129.761719 202.378906 129.769531 202.390625 C 129.835938 202.472656 129.898438 202.554688 129.960938 202.640625 C 130.003906 202.703125 130.050781 202.765625 130.089844 202.828125 C 130.128906 202.890625 130.167969 202.949219 130.207031 203.007812 C 130.289062 203.144531 130.367188 203.285156 130.4375 203.429688 C 130.507812 203.574219 130.570312 203.722656 130.628906 203.871094 C 130.648438 203.929688 130.667969 203.984375 130.6875 204.042969 C 130.71875 204.128906 130.746094 204.21875 130.769531 204.304688 C 131.253906 205.992188 130.890625 207.851562 129.753906 209.253906 C 129.714844 209.300781 129.683594 209.355469 129.648438 209.40625 C 129.1875 209.933594 128.617188 210.382812 127.953125 210.707031 Z M 155.628906 152.929688 C 158.734375 149.09375 163.328125 146.898438 168.25 146.898438 L 194.847656 146.898438 L 138.246094 177.832031 Z M 257.320312 174.90625 L 232.628906 129.519531 C 232.265625 128.851562 231.652344 128.355469 230.921875 128.140625 C 230.191406 127.921875 229.40625 128.007812 228.738281 128.375 L 204.628906 141.550781 C 203.253906 141.285156 201.886719 141.144531 200.546875 141.144531 L 168.25 141.144531 C 161.535156 141.144531 155.277344 144.160156 151.078125 149.421875 C 151.007812 149.507812 150.945312 149.597656 150.886719 149.691406 L 126.925781 184.019531 L 119.476562 188.089844 C 118.085938 188.851562 117.574219 190.597656 118.332031 191.992188 L 120.445312 195.875 L 120.015625 196.085938 C 117.378906 197.382812 116.285156 200.589844 117.578125 203.234375 L 122.71875 213.734375 C 123.640625 215.628906 125.535156 216.726562 127.511719 216.726562 C 128.296875 216.726562 129.097656 216.554688 129.851562 216.183594 L 130.480469 215.871094 C 130.703125 215.761719 130.917969 215.644531 131.132812 215.519531 L 143.023438 237.378906 C 143.386719 238.046875 144.003906 238.542969 144.734375 238.761719 C 144.996094 238.835938 145.269531 238.875 145.542969 238.875 C 146.019531 238.875 146.492188 238.757812 146.917969 238.527344 L 161.113281 230.765625 L 161.113281 268.765625 L 134.621094 268.765625 C 133.035156 268.765625 131.75 270.050781 131.75 271.636719 C 131.75 273.226562 133.035156 274.515625 134.621094 274.515625 L 244.273438 274.515625 C 245.855469 274.515625 247.140625 273.226562 247.140625 271.636719 C 247.140625 270.050781 245.855469 268.765625 244.273438 268.765625 L 207.683594 268.765625 L 207.683594 211.410156 C 210.707031 211.667969 215.066406 211.40625 218.777344 208.765625 C 222.535156 206.089844 224.722656 201.691406 225.296875 195.6875 L 256.175781 178.808594 C 257.566406 178.046875 258.078125 176.300781 257.320312 174.90625 "/>
</g>
</g>
</svg>
