<?xml version="1.0" encoding="UTF-8"?>
<svg xmlns="http://www.w3.org/2000/svg" xmlns:xlink="http://www.w3.org/1999/xlink" width="375pt" height="374.999991pt" viewBox="0 0 375 374.999991" version="1.2">
<defs>
<clipPath id="clip1">
  <path d="M 35.625 59.167969 L 339.890625 59.167969 L 339.890625 375 L 35.625 375 Z M 35.625 59.167969 "/>
</clipPath>
</defs>
<g id="surface1">
<path style=" stroke:none;fill-rule:nonzero;fill:rgb(38.038635%,69.40918%,90.19928%);fill-opacity:1;" d="M 181.402344 12.390625 C 197.265625 12.390625 210.171875 25.273438 210.171875 41.105469 C 210.171875 56.941406 197.265625 69.824219 181.402344 69.824219 C 165.535156 69.824219 152.628906 56.941406 152.628906 41.105469 C 152.628906 25.273438 165.535156 12.390625 181.402344 12.390625 Z M 181.402344 82.21875 C 204.113281 82.21875 222.589844 63.777344 222.589844 41.105469 C 222.589844 18.445312 204.113281 0 181.402344 0 C 158.691406 0 140.214844 18.445312 140.214844 41.105469 C 140.214844 63.777344 158.691406 82.21875 181.402344 82.21875 "/>
<path style=" stroke:none;fill-rule:nonzero;fill:rgb(38.038635%,69.40918%,90.19928%);fill-opacity:1;" d="M 168.9375 205.019531 C 167.488281 209.929688 164.210938 213.992188 159.707031 216.441406 L 153.273438 219.941406 L 134.878906 186.269531 L 141.3125 182.769531 C 150.605469 177.707031 162.304688 181.140625 167.375 190.421875 C 169.832031 194.921875 170.386719 200.105469 168.9375 205.019531 Z M 135.367188 171.886719 L 123.484375 178.355469 C 122.039062 179.148438 120.964844 180.472656 120.5 182.046875 C 120.035156 183.625 120.214844 185.320312 121.003906 186.765625 L 145.347656 231.316406 C 146.136719 232.761719 147.464844 233.828125 149.042969 234.292969 C 149.617188 234.460938 150.207031 234.542969 150.796875 234.542969 C 151.828125 234.542969 152.847656 234.285156 153.769531 233.789062 L 165.648438 227.320312 C 180.957031 218.992188 186.625 199.773438 178.273438 184.488281 C 169.925781 169.207031 150.679688 163.558594 135.367188 171.886719 "/>
<path style=" stroke:none;fill-rule:nonzero;fill:rgb(38.038635%,69.40918%,90.19928%);fill-opacity:1;" d="M 104.488281 230.460938 L 102.613281 216.507812 L 113.351562 225.640625 Z M 139.769531 231.824219 L 98.328125 196.582031 C 96.375 194.917969 93.589844 194.636719 91.332031 195.855469 C 89.074219 197.085938 87.8125 199.578125 88.152344 202.121094 L 93.355469 240.824219 C 93.359375 240.847656 93.363281 240.867188 93.367188 240.890625 L 95.394531 255.984375 C 95.8125 259.089844 98.476562 261.355469 101.539062 261.355469 C 101.8125 261.355469 102.09375 261.335938 102.371094 261.296875 C 105.769531 260.84375 108.15625 257.722656 107.699219 254.332031 L 106.257812 243.621094 L 123.472656 234.25 L 131.71875 241.257812 C 134.328125 243.476562 138.242188 243.171875 140.46875 240.558594 C 142.691406 237.957031 142.378906 234.046875 139.769531 231.824219 "/>
<path style=" stroke:none;fill-rule:nonzero;fill:rgb(38.038635%,69.40918%,90.19928%);fill-opacity:1;" d="M 207.601562 138.503906 C 205.835938 136.238281 202.738281 135.46875 200.117188 136.664062 C 197.496094 137.859375 196.042969 140.691406 196.601562 143.511719 L 200.101562 161.03125 L 187.238281 148.609375 C 185.175781 146.617188 181.996094 146.296875 179.570312 147.847656 C 177.148438 149.402344 176.109375 152.410156 177.066406 155.125 L 194.191406 203.601562 C 195.09375 206.144531 197.488281 207.742188 200.046875 207.742188 C 200.730469 207.742188 201.429688 207.625 202.109375 207.382812 C 205.347656 206.246094 207.042969 202.703125 205.902344 199.480469 L 197.539062 175.800781 L 205.757812 183.738281 C 207.710938 185.628906 210.660156 186.035156 213.050781 184.730469 C 215.429688 183.425781 216.691406 180.734375 216.164062 178.078125 L 213.929688 166.882812 L 229.339844 186.722656 C 231.441406 189.429688 235.347656 189.925781 238.050781 187.820312 C 240.761719 185.726562 241.253906 181.832031 239.152344 179.128906 L 207.601562 138.503906 "/>
<path style=" stroke:none;fill-rule:nonzero;fill:rgb(38.038635%,69.40918%,90.19928%);fill-opacity:1;" d="M 230.878906 126.960938 C 229.238281 123.957031 225.476562 122.851562 222.453125 124.484375 C 219.445312 126.125 218.339844 129.890625 219.976562 132.894531 L 244.316406 177.445312 C 245.441406 179.507812 247.574219 180.671875 249.769531 180.671875 C 250.773438 180.671875 251.792969 180.433594 252.738281 179.917969 C 255.75 178.28125 256.859375 174.519531 255.21875 171.511719 L 230.878906 126.960938 "/>
<path style=" stroke:none;fill-rule:nonzero;fill:rgb(38.038635%,69.40918%,90.19928%);fill-opacity:1;" d="M 273.117188 96.90625 C 270.109375 98.546875 269 102.3125 270.640625 105.316406 L 286.214844 133.820312 L 244.410156 115.300781 C 241.972656 114.222656 239.125 114.8125 237.328125 116.765625 C 235.523438 118.71875 235.167969 121.601562 236.4375 123.933594 L 260.78125 168.484375 C 261.910156 170.542969 264.039062 171.710938 266.238281 171.710938 C 267.242188 171.710938 268.257812 171.46875 269.203125 170.957031 C 272.214844 169.320312 273.324219 165.554688 271.683594 162.546875 L 256.105469 134.042969 L 297.910156 152.566406 C 300.347656 153.640625 303.191406 153.050781 304.996094 151.101562 C 306.800781 149.148438 307.15625 146.261719 305.882812 143.933594 L 281.542969 99.382812 C 279.898438 96.375 276.128906 95.273438 273.117188 96.90625 "/>
<g clip-path="url(#clip1)" clip-rule="nonzero">
<path style=" stroke:none;fill-rule:nonzero;fill:rgb(38.038635%,69.40918%,90.19928%);fill-opacity:1;" d="M 134.285156 264.824219 C 134.269531 264.832031 134.253906 264.839844 134.238281 264.847656 L 99.796875 283.597656 L 75.222656 238.621094 C 78.433594 232.796875 79.199219 225.738281 76.9375 219.160156 C 76.917969 219.105469 76.898438 219.046875 76.878906 218.988281 C 76.75 218.621094 76.609375 218.25 76.460938 217.886719 C 76.425781 217.800781 76.394531 217.710938 76.359375 217.625 C 76.175781 217.199219 75.988281 216.773438 75.78125 216.351562 C 75.558594 215.90625 75.324219 215.46875 75.078125 215.039062 C 75.027344 214.949219 74.976562 214.867188 74.925781 214.777344 C 72 209.785156 67.4375 206.039062 61.902344 204.148438 C 59.871094 203.457031 57.796875 203.046875 55.710938 202.902344 L 52.304688 196.667969 L 277.839844 73.910156 L 325.332031 160.835938 Z M 248.660156 223.160156 C 242.796875 227.351562 235.109375 227.058594 230.753906 226.433594 L 255.769531 212.816406 C 254.238281 217.402344 251.867188 220.867188 248.660156 223.160156 Z M 187.609375 362.605469 L 187.609375 253.363281 C 187.609375 252.265625 187.320312 251.238281 186.820312 250.34375 L 219.375 232.625 L 219.375 362.605469 Z M 143.429688 273.964844 L 175.191406 256.671875 L 175.191406 362.605469 L 143.429688 362.605469 Z M 58.683594 237.777344 L 48.335938 216.726562 L 48.910156 216.441406 C 49.945312 215.9375 51.03125 215.59375 52.136719 215.40625 C 52.351562 215.40625 52.566406 215.40625 52.78125 215.382812 C 56.777344 214.949219 60.640625 216.542969 63.113281 219.484375 C 63.136719 219.515625 63.164062 219.542969 63.1875 219.574219 C 63.328125 219.746094 63.464844 219.925781 63.597656 220.105469 C 63.695312 220.242188 63.789062 220.378906 63.878906 220.515625 C 63.964844 220.644531 64.050781 220.769531 64.128906 220.90625 C 64.308594 221.199219 64.476562 221.496094 64.628906 221.808594 C 64.785156 222.121094 64.917969 222.441406 65.042969 222.761719 C 65.085938 222.882812 65.128906 223.003906 65.171875 223.128906 C 65.238281 223.316406 65.296875 223.507812 65.351562 223.699219 C 66.394531 227.332031 65.613281 231.339844 63.148438 234.359375 C 63.0625 234.464844 62.996094 234.578125 62.917969 234.695312 C 61.925781 235.828125 60.691406 236.792969 59.25 237.496094 Z M 119.140625 112.980469 C 125.859375 104.714844 135.800781 99.980469 146.457031 99.980469 L 204.007812 99.980469 L 81.53125 166.648438 Z M 339.203125 160.339844 L 285.773438 62.535156 C 284.980469 61.09375 283.652344 60.023438 282.074219 59.558594 C 280.492188 59.089844 278.796875 59.277344 277.347656 60.0625 L 225.179688 88.457031 C 222.203125 87.886719 219.242188 87.585938 216.34375 87.585938 L 146.457031 87.585938 C 131.925781 87.585938 118.382812 94.085938 109.292969 105.417969 C 109.144531 105.609375 109.007812 105.804688 108.882812 106.003906 L 57.03125 179.980469 L 40.910156 188.757812 C 37.902344 190.394531 36.792969 194.15625 38.433594 197.160156 L 43.003906 205.53125 L 42.078125 205.984375 C 36.367188 208.777344 34.003906 215.6875 36.804688 221.386719 L 47.921875 244.019531 C 49.917969 248.097656 54.023438 250.46875 58.292969 250.46875 C 59.996094 250.46875 61.726562 250.089844 63.359375 249.292969 L 64.722656 248.621094 C 65.203125 248.386719 65.671875 248.132812 66.132812 247.867188 L 91.867188 294.96875 C 92.65625 296.414062 93.984375 297.484375 95.5625 297.949219 C 96.136719 298.113281 96.726562 298.199219 97.316406 298.199219 C 98.34375 298.199219 99.371094 297.941406 100.289062 297.445312 L 131.011719 280.71875 L 131.011719 362.605469 L 73.679688 362.605469 C 70.25 362.605469 67.472656 365.378906 67.472656 368.800781 C 67.472656 372.226562 70.25 375 73.679688 375 L 310.964844 375 C 314.390625 375 317.171875 372.226562 317.171875 368.800781 C 317.171875 365.378906 314.390625 362.605469 310.964844 362.605469 L 231.792969 362.605469 L 231.792969 239.011719 C 238.332031 239.566406 247.761719 239.003906 255.792969 233.308594 C 263.925781 227.546875 268.65625 218.066406 269.902344 205.125 L 336.726562 168.75 C 339.734375 167.113281 340.839844 163.347656 339.203125 160.339844 "/>
</g>
</g>
</svg>
